# xmcd CD database file
#
# Track frame offsets:
#	182
#	13600
#	27900
#	49905
#	66092
#	81675
#	99737
#	122900
#	140440
#	158875
#	175025
#	206140
#	217425
#	261375
#	286365
#
# Disc length: 4036 seconds
#
# Revision: 1
# Processed by: cddbd v1.5.2PL0 Copyright (c) Steve Scherf et al.
# Submitted via: CDex 1.51
#
DISCID=ef0fc20f
DTITLE=Johnny Copeland - Texas Twister
DYEAR=1900
DGENRE=Blues
TTITLE0=Everybody Wants A Piece Of Me
TTITLE1=Copeland Special
TTITLE2=It's My Own Tears That's Being Wasted 
TTITLE3=Claim Jumper
TTITLE4=Natural Born Believer
TTITLE5=Cold Outside
TTITLE6=Honky Tonkin'
TTITLE7=Love Utopia
TTITLE8=Don't Stop By The Creek, Son
TTITLE9=Houston
TTITLE10=I De Go Now
TTITLE11=Excuses
TTITLE12=Ngote
TTITLE13=Kasavubu
TTITLE14=Abidjan
EXTD=
EXTT0=
EXTT1=
EXTT2=
EXTT3=
EXTT4=
EXTT5=
EXTT6=
EXTT7=
EXTT8=
EXTT9=
EXTT10=
EXTT11=
EXTT12=
EXTT13=
EXTT14=
PLAYORDER=
